<svg xmlns="http://www.w3.org/2000/svg" viewBox="0 0 1600 560" role="img" aria-labelledby="title desc">
  <title id="title">Sarvadnya Sonkambale — AI Engineer</title>
  <desc id="desc">Dark engineering portfolio hero with terminal styling, AI systems messaging and subtle Indian tricolor accents.</desc>
  <defs>
    <linearGradient id="bg" x1="0" y1="0" x2="1" y2="1">
      <stop offset="0" stop-color="#05080f"/>
      <stop offset="0.58" stop-color="#0a101c"/>
      <stop offset="1" stop-color="#111827"/>
    </linearGradient>
    <linearGradient id="name" x1="0" y1="0" x2="1" y2="0">
      <stop offset="0" stop-color="#f8fafc"/>
      <stop offset="0.58" stop-color="#f97316"/>
      <stop offset="0.78" stop-color="#f8fafc"/>
      <stop offset="1" stop-color="#22c55e"/>
    </linearGradient>
    <linearGradient id="tri" x1="0" y1="0" x2="1" y2="0">
      <stop offset="0" stop-color="#ff9933"/>
      <stop offset="0.5" stop-color="#f8fafc"/>
      <stop offset="1" stop-color="#138808"/>
    </linearGradient>
    <linearGradient id="mountain" x1="0" y1="0" x2="0" y2="1">
      <stop offset="0" stop-color="#1e293b"/>
      <stop offset="1" stop-color="#060a11"/>
    </linearGradient>
    <radialGradient id="sun" cx="50%" cy="50%" r="50%">
      <stop offset="0" stop-color="#fff7d6" stop-opacity="0.98"/>
      <stop offset="1" stop-color="#fde68a" stop-opacity="0.68"/>
    </radialGradient>
    <filter id="blur"><feGaussianBlur stdDeviation="28"/></filter>
    <pattern id="grid" width="36" height="36" patternUnits="userSpaceOnUse">
      <path d="M36 0H0V36" fill="none" stroke="#fff" stroke-opacity="0.035"/>
    </pattern>
  </defs>

  <rect width="1600" height="560" rx="28" fill="url(#bg)"/>
  <rect width="1600" height="560" rx="28" fill="url(#grid)"/>
  <ellipse cx="1290" cy="120" rx="310" ry="150" fill="#2563eb" opacity="0.12" filter="url(#blur)"/>
  <ellipse cx="1470" cy="430" rx="280" ry="130" fill="#7c3aed" opacity="0.10" filter="url(#blur)"/>

  <rect x="58" y="42" width="1484" height="476" rx="22" fill="none" stroke="#334155" stroke-opacity="0.7"/>
  <rect x="58" y="42" width="1484" height="4" rx="2" fill="url(#tri)"/>

  <g font-family="ui-monospace,SFMono-Regular,Consolas,monospace">
    <text x="104" y="90" fill="#94a3b8" font-size="18">&gt; engineer@sarvadnya:~$</text>
    <rect x="350" y="71" width="11" height="23" rx="2" fill="#34d399"/>
  </g>

  <text x="104" y="178" fill="url(#name)" font-family="Inter,Segoe UI,Arial,sans-serif" font-size="62" font-weight="800">Sarvadnya Sonkambale</text>
  <text x="106" y="226" fill="#e2e8f0" font-family="ui-monospace,SFMono-Regular,Consolas,monospace" font-size="23" letter-spacing="1.4">AI ENGINEER  •  FULL-STACK DEVELOPER  •  BUILDER</text>
  <text x="106" y="270" fill="#94a3b8" font-family="Inter,Segoe UI,Arial,sans-serif" font-size="20">Building practical AI systems across LLM infrastructure, secure automation,</text>
  <text x="106" y="300" fill="#94a3b8" font-family="Inter,Segoe UI,Arial,sans-serif" font-size="20">backend engineering, local AI, and developer tooling.</text>

  <g transform="translate(106 338)" font-family="Inter,Segoe UI,Arial,sans-serif">
    <g>
      <rect width="150" height="42" rx="10" fill="#111827" stroke="#334155"/>
      <text x="75" y="27" text-anchor="middle" fill="#c4b5fd" font-size="15">AI / LLM</text>
    </g>
    <g transform="translate(164)">
      <rect width="154" height="42" rx="10" fill="#111827" stroke="#334155"/>
      <text x="77" y="27" text-anchor="middle" fill="#93c5fd" font-size="15">FULL STACK</text>
    </g>
    <g transform="translate(332)">
      <rect width="140" height="42" rx="10" fill="#111827" stroke="#334155"/>
      <text x="70" y="27" text-anchor="middle" fill="#86efac" font-size="15">SECURITY</text>
    </g>
    <g transform="translate(486)">
      <rect width="164" height="42" rx="10" fill="#111827" stroke="#334155"/>
      <text x="82" y="27" text-anchor="middle" fill="#e2e8f0" font-size="15">OPEN SOURCE</text>
    </g>
  </g>

  <g transform="translate(106 406)" font-family="ui-monospace,SFMono-Regular,Consolas,monospace">
    <text x="0" y="24" fill="#64748b" font-size="14">BUILD</text>
    <text x="74" y="24" fill="#64748b" font-size="14">LEARN</text>
    <text x="153" y="24" fill="#64748b" font-size="14">IMPROVE</text>
    <text x="244" y="24" fill="#64748b" font-size="14">REPEAT</text>
    <rect x="0" y="42" width="310" height="1" fill="#1e293b"/>
    <rect x="0" y="48" width="74" height="3" rx="1.5" fill="#ff9933"/>
    <rect x="74" y="48" width="76" height="3" rx="1.5" fill="#f8fafc"/>
    <rect x="150" y="48" width="78" height="3" rx="1.5" fill="#138808"/>
  </g>

  <g transform="translate(1020 74)">
    <path d="M0 300 C100 225 148 245 220 166 C284 96 347 152 398 108 C456 58 500 108 580 36 C655 82 695 94 748 124 L748 420 L0 420 Z" fill="#0b1220" opacity="0.9"/>
    <path d="M0 338 L150 226 L235 292 L346 156 L430 272 L540 204 L616 282 L724 196 L800 260 L800 420 L0 420 Z" fill="url(#mountain)"/>
    <circle cx="500" cy="115" r="74" fill="url(#sun)" opacity="0.95"/>
    <path d="M80 92 C250 16 408 20 570 68 C658 94 714 112 800 92" fill="none" stroke="#ff9933" stroke-width="18" stroke-linecap="round" opacity="0.82"/>
    <path d="M86 110 C250 34 420 42 575 83 C660 106 720 124 802 104" fill="none" stroke="#f8fafc" stroke-width="15" stroke-linecap="round" opacity="0.78"/>
    <path d="M92 128 C258 60 430 66 582 100 C666 120 730 137 806 118" fill="none" stroke="#138808" stroke-width="18" stroke-linecap="round" opacity="0.78"/>
    <path d="M500 194 L500 113" stroke="#0f172a" stroke-width="4"/>
    <path d="M500 112 h56 l-18 28 h-38 z" fill="#0b1220"/>
    <path d="M430 352 L500 246 L570 352 Z" fill="#020617"/>
    <path d="M465 352 L500 292 L535 352 Z" fill="#111827"/>
    <circle cx="500" cy="302" r="7" fill="#e2e8f0"/>
  </g>

  <g transform="translate(1110 410)">
    <rect width="380" height="66" rx="14" fill="#08101b" stroke="#334155"/>
    <rect x="18" y="17" width="4" height="32" rx="2" fill="#60a5fa"/>
    <text x="38" y="29" fill="#cbd5e1" font-family="ui-monospace,SFMono-Regular,Consolas,monospace" font-size="15">Better tools.</text>
    <text x="38" y="50" fill="#cbd5e1" font-family="ui-monospace,SFMono-Regular,Consolas,monospace" font-size="15">A more capable tomorrow.</text>
    <text x="308" y="28" fill="#64748b" font-family="ui-monospace,SFMono-Regular,Consolas,monospace" font-size="12">INDIA</text>
    <text x="308" y="46" fill="#64748b" font-family="ui-monospace,SFMono-Regular,Consolas,monospace" font-size="12">BUILDS</text>
    <rect x="308" y="55" width="20" height="3" fill="#ff9933"/>
    <rect x="328" y="55" width="20" height="3" fill="#f8fafc"/>
    <rect x="348" y="55" width="20" height="3" fill="#138808"/>
  </g>

  <text x="1070" y="508" fill="#64748b" font-family="ui-monospace,SFMono-Regular,Consolas,monospace" font-size="13" letter-spacing="1.8">ARCHITECTURE  /  SECURITY  /  SYSTEMS  /  RELIABILITY</text>
</svg>